<svg xmlns="http://www.w3.org/2000/svg" version="1.1" xmlns:xlink="http://www.w3.org/1999/xlink" xmlns:svgjs="http://svgjs.dev/svgjs" width="1000" height="1000" viewBox="0 0 1000 1000"><g transform="matrix(1,0,0,1,-0.14221556886212738,-0.14221556886229791)"><svg viewBox="0 0 334 334" data-background-color="#ffffff" preserveAspectRatio="xMidYMid meet" height="1000" width="1000" xmlns="http://www.w3.org/2000/svg" xmlns:xlink="http://www.w3.org/1999/xlink"><g id="tight-bounds" transform="matrix(1,0,0,1,0.04749999999998522,0.04750000000001364)"><svg viewBox="0 0 333.90454557049503 333.90454557049503" height="333.90454557049503" width="333.90454557049503"><g><svg></svg></g><g><svg viewBox="0 0 333.90454557049503 333.90454557049503" height="333.90454557049503" width="333.90454557049503"><g><path d="M0 166.952c0-92.205 74.747-166.952 166.952-166.952 92.205 0 166.952 74.747 166.953 166.952 0 92.205-74.747 166.952-166.953 166.953-92.205 0-166.952-74.747-166.952-166.953zM166.952 316.63c82.665 0 149.677-67.013 149.678-149.678 0-82.665-67.013-149.677-149.678-149.677-82.665 0-149.677 67.013-149.677 149.677 0 82.665 67.013 149.677 149.677 149.678z" data-fill-palette-color="tertiary" fill="#ee3e38" stroke="transparent"></path><ellipse rx="160.27418187383762" ry="160.27418187383762" cx="166.95227278524752" cy="166.95227278524752" fill="#ee3e38" stroke="transparent" stroke-width="0" fill-opacity="1" data-fill-palette-color="tertiary"></ellipse></g><g transform="matrix(1,0,0,1,100.97432669694649,71.17305217166896)"><svg viewBox="0 0 131.95589217660205 191.55844122715712" height="191.55844122715712" width="131.95589217660205"><g><svg viewBox="0 0 131.95589217660205 191.55844122715712" height="191.55844122715712" width="131.95589217660205"><g><svg viewBox="0 0 131.95589217660205 191.55844122715712" height="191.55844122715712" width="131.95589217660205"><g><svg viewBox="0 0 131.95589217660205 191.55844122715712" height="191.55844122715712" width="131.95589217660205"><g id="textblocktransform"><svg viewBox="0 0 131.95589217660205 191.55844122715712" height="191.55844122715712" width="131.95589217660205" id="textblock"><g><svg viewBox="0 0 131.95589217660205 191.55844122715712" height="191.55844122715712" width="131.95589217660205"><g transform="matrix(1,0,0,1,0,0)"><svg width="131.95589217660205" viewBox="1.25 -30.959999084472656 21.719999313354492 31.549999237060547" height="191.55844122715712" data-palette-color="#ffffff"><path d="M10.86 0.59Q13.6 0.59 16.41-0.48 19.21-1.54 21.09-3.7 22.97-5.86 22.97-8.98L22.97-8.98Q22.97-11.52 21.69-13.33 20.41-15.14 18.63-16.26 16.85-17.38 13.96-18.75L13.96-18.75Q11.82-19.75 10.62-20.45 9.42-21.14 8.62-22.08 7.81-23.02 7.81-24.22L7.81-24.22Q7.81-25.9 8.78-26.82 9.74-27.73 11.33-27.73L11.33-27.73Q12.72-27.73 14.07-27.01 15.43-26.29 16.02-25.34L16.02-25.34 16.8-21.29 20.12-20.75Q20.21-21.92 20.48-25.15 20.75-28.37 20.75-28.61L20.75-28.61Q19.6-29.64 17.32-30.3 15.04-30.96 12.99-30.96L12.99-30.96Q10.08-30.96 7.48-29.9 4.88-28.83 3.26-26.72 1.64-24.61 1.64-21.63L1.64-21.63Q1.64-19.07 2.87-17.27 4.1-15.48 5.8-14.4 7.5-13.33 10.25-12.01L10.25-12.01Q12.21-11.08 13.32-10.44 14.43-9.79 15.17-8.92 15.92-8.06 15.92-6.93L15.92-6.93Q15.92-5.76 15.3-4.91 14.67-4.05 13.65-3.6 12.62-3.15 11.47-3.15L11.47-3.15Q9.86-3.15 8.4-3.85 6.93-4.54 6.2-5.62L6.2-5.62 5.22-10.18 1.81-10.69 1.25-3.03Q2.37-1.46 4.97-0.44 7.57 0.59 10.86 0.59L10.86 0.59Z" opacity="1" transform="matrix(1,0,0,1,0,0)" fill="#ffffff" class="undefined-text-0" data-fill-palette-color="quaternary" id="text-0"></path></svg></g></svg></g></svg></g></svg></g><g></g></svg></g></svg></g></svg></g></svg></g><defs></defs></svg><rect width="333.90454557049503" height="333.90454557049503" fill="none" stroke="none" visibility="hidden"></rect></g></svg></g></svg>